<svg width="34" height="10" viewBox="0 0 34 10" fill="none" xmlns="http://www.w3.org/2000/svg">
<path d="M0.958807 9H2.27557V5.1946H6.62642V9H7.94744V0.272727H6.62642V4.06534H2.27557V0.272727H0.958807V9ZM12.5199 9.1321C14.3651 9.1321 15.571 7.78125 15.571 5.7571C15.571 3.72017 14.3651 2.36932 12.5199 2.36932C10.6747 2.36932 9.46875 3.72017 9.46875 5.7571C9.46875 7.78125 10.6747 9.1321 12.5199 9.1321ZM12.5241 8.0625C11.3182 8.0625 10.7557 7.00994 10.7557 5.75284C10.7557 4.5 11.3182 3.43466 12.5241 3.43466C13.7216 3.43466 14.2841 4.5 14.2841 5.75284C14.2841 7.00994 13.7216 8.0625 12.5241 8.0625ZM16.9933 9H18.2674V4.96449C18.2674 4.08239 18.8853 3.46875 19.6097 3.46875C20.3171 3.46875 20.8072 3.9375 20.8072 4.64915V9H22.0771V4.82812C22.0771 4.03977 22.5586 3.46875 23.3896 3.46875C24.0629 3.46875 24.6168 3.84375 24.6168 4.73011V9H25.891V4.6108C25.891 3.11506 25.0558 2.36932 23.8711 2.36932C22.9293 2.36932 22.2219 2.82102 21.9066 3.51989H21.8384C21.5529 2.80398 20.9521 2.36932 20.0785 2.36932C19.2134 2.36932 18.57 2.79972 18.2972 3.51989H18.2163V2.45455H16.9933V9ZM30.4197 9.1321C31.8473 9.1321 32.8572 8.42898 33.147 7.36364L31.9411 7.14631C31.7109 7.7642 31.157 8.07955 30.4325 8.07955C29.3416 8.07955 28.6087 7.37216 28.5746 6.1108H33.228V5.65909C33.228 3.29403 31.8132 2.36932 30.3303 2.36932C28.5064 2.36932 27.3047 3.75852 27.3047 5.76989C27.3047 7.80256 28.4893 9.1321 30.4197 9.1321ZM28.5788 5.15625C28.63 4.22727 29.3033 3.42188 30.3388 3.42188C31.3274 3.42188 31.9751 4.15483 31.9794 5.15625H28.5788Z" fill="white"/>
</svg>
